<svg xmlns="http://www.w3.org/2000/svg" version="1.1" xmlns:xlink="http://www.w3.org/1999/xlink" xmlns:svgjs="http://svgjs.dev/svgjs" viewBox="0 0 800 800"><defs><linearGradient x1="50%" y1="0%" x2="50%" y2="100%" id="ffflurry-grad" gradientTransform="rotate(270)"><stop stop-color="hsl(238, 82%, 13%)" stop-opacity="1" offset="0%"></stop><stop stop-color="hsl(265, 86%, 53%)" stop-opacity="1" offset="45%"></stop><stop stop-color="hsl(212, 97%, 49%)" stop-opacity="1" offset="100%"></stop></linearGradient></defs><rect width="100%" height="100%" fill="hsl(238, 82%, 13%)"></rect><g fill="url(#ffflurry-grad)"><rect width="53" height="6" x="410.5" y="330" rx="3" transform="rotate(45, 437, 333)" opacity="0.60"></rect><rect width="206" height="6" x="107" y="165" rx="3" transform="rotate(45, 210, 168)" opacity="0.41"></rect><rect width="215" height="6" x="484.5" y="692" rx="3" transform="rotate(45, 592, 695)" opacity="0.51"></rect><rect width="220" height="6" x="381" y="40" rx="3" transform="rotate(45, 491, 43)" opacity="0.79"></rect><rect width="148" height="6" x="141" y="509" rx="3" transform="rotate(45, 215, 512)" opacity="0.37"></rect><rect width="435" height="6" x="-159.5" y="761" rx="3" transform="rotate(45, 58, 764)" opacity="0.86"></rect><rect width="291" height="6" x="385.5" y="130" rx="3" transform="rotate(45, 531, 133)" opacity="0.81"></rect><rect width="102" height="6" x="102" y="187" rx="3" transform="rotate(45, 153, 190)" opacity="0.90"></rect><rect width="134" height="6" x="316" y="131" rx="3" transform="rotate(45, 383, 134)" opacity="0.12"></rect><rect width="436" height="6" x="393" y="540" rx="3" transform="rotate(45, 611, 543)" opacity="0.67"></rect><rect width="107" height="6" x="282.5" y="503" rx="3" transform="rotate(45, 336, 506)" opacity="0.93"></rect><rect width="374" height="6" x="-8" y="581" rx="3" transform="rotate(45, 179, 584)" opacity="0.47"></rect><rect width="470" height="6" x="341" y="51" rx="3" transform="rotate(45, 576, 54)" opacity="0.86"></rect><rect width="450" height="6" x="-8" y="349" rx="3" transform="rotate(45, 217, 352)" opacity="0.50"></rect><rect width="195" height="6" x="149.5" y="47" rx="3" transform="rotate(45, 247, 50)" opacity="0.21"></rect><rect width="161" height="6" x="383.5" y="642" rx="3" transform="rotate(45, 464, 645)" opacity="0.67"></rect><rect width="288" height="6" x="424" y="464" rx="3" transform="rotate(45, 568, 467)" opacity="0.14"></rect><rect width="596" height="6" x="151" y="199" rx="3" transform="rotate(45, 449, 202)" opacity="0.19"></rect><rect width="79" height="6" x="424.5" y="560" rx="3" transform="rotate(45, 464, 563)" opacity="0.69"></rect><rect width="120" height="6" x="422" y="485" rx="3" transform="rotate(45, 482, 488)" opacity="0.22"></rect><rect width="373" height="6" x="261.5" y="722" rx="3" transform="rotate(45, 448, 725)" opacity="0.27"></rect><rect width="300" height="6" x="-24" y="621" rx="3" transform="rotate(45, 126, 624)" opacity="0.37"></rect><rect width="45" height="6" x="169.5" y="708" rx="3" transform="rotate(45, 192, 711)" opacity="0.11"></rect><rect width="83" height="6" x="487.5" y="524" rx="3" transform="rotate(45, 529, 527)" opacity="0.86"></rect><rect width="199" height="6" x="546.5" y="752" rx="3" transform="rotate(45, 646, 755)" opacity="0.85"></rect><rect width="186" height="6" x="219" y="680" rx="3" transform="rotate(45, 312, 683)" opacity="0.93"></rect><rect width="122" height="6" x="219" y="625" rx="3" transform="rotate(45, 280, 628)" opacity="0.57"></rect><rect width="340" height="6" x="126" y="357" rx="3" transform="rotate(45, 296, 360)" opacity="0.72"></rect><rect width="137" height="6" x="688.5" y="216" rx="3" transform="rotate(45, 757, 219)" opacity="0.13"></rect><rect width="440" height="6" x="269" y="412" rx="3" transform="rotate(45, 489, 415)" opacity="0.94"></rect><rect width="352" height="6" x="206" y="703" rx="3" transform="rotate(45, 382, 706)" opacity="0.97"></rect><rect width="217" height="6" x="571.5" y="665" rx="3" transform="rotate(45, 680, 668)" opacity="0.08"></rect><rect width="210" height="6" x="-59" y="553" rx="3" transform="rotate(45, 46, 556)" opacity="0.80"></rect><rect width="239" height="6" x="590.5" y="754" rx="3" transform="rotate(45, 710, 757)" opacity="0.46"></rect><rect width="386" height="6" x="-81" y="120" rx="3" transform="rotate(45, 112, 123)" opacity="0.82"></rect><rect width="323" height="6" x="-2.5" y="436" rx="3" transform="rotate(45, 159, 439)" opacity="0.93"></rect><rect width="221" height="6" x="198.5" y="585" rx="3" transform="rotate(45, 309, 588)" opacity="0.79"></rect><rect width="544" height="6" x="-200" y="217" rx="3" transform="rotate(45, 72, 220)" opacity="0.23"></rect><rect width="281" height="6" x="403.5" y="583" rx="3" transform="rotate(45, 544, 586)" opacity="0.86"></rect><rect width="242" height="6" x="391" y="699" rx="3" transform="rotate(45, 512, 702)" opacity="0.86"></rect><rect width="115" height="6" x="571.5" y="321" rx="3" transform="rotate(45, 629, 324)" opacity="0.98"></rect><rect width="226" height="6" x="441" y="640" rx="3" transform="rotate(45, 554, 643)" opacity="0.73"></rect><rect width="87" height="6" x="471.5" y="306" rx="3" transform="rotate(45, 515, 309)" opacity="0.34"></rect><rect width="224" height="6" x="247" y="628" rx="3" transform="rotate(45, 359, 631)" opacity="0.99"></rect><rect width="78" height="6" x="331" y="555" rx="3" transform="rotate(45, 370, 558)" opacity="0.39"></rect><rect width="321" height="6" x="162.5" y="26" rx="3" transform="rotate(45, 323, 29)" opacity="0.79"></rect><rect width="155" height="6" x="364.5" y="775" rx="3" transform="rotate(45, 442, 778)" opacity="0.87"></rect><rect width="199" height="6" x="138.5" y="585" rx="3" transform="rotate(45, 238, 588)" opacity="0.92"></rect><rect width="417" height="6" x="-37.5" y="272" rx="3" transform="rotate(45, 171, 275)" opacity="0.22"></rect><rect width="144" height="6" x="699" y="766" rx="3" transform="rotate(45, 771, 769)" opacity="0.31"></rect><rect width="294" height="6" x="18" y="769" rx="3" transform="rotate(45, 165, 772)" opacity="0.41"></rect><rect width="545" height="6" x="-238.5" y="82" rx="3" transform="rotate(45, 34, 85)" opacity="0.64"></rect><rect width="94" height="6" x="209" y="758" rx="3" transform="rotate(45, 256, 761)" opacity="0.95"></rect><rect width="191" height="6" x="99.5" y="90" rx="3" transform="rotate(45, 195, 93)" opacity="0.84"></rect><rect width="725" height="6" x="381.5" y="74" rx="3" transform="rotate(45, 744, 77)" opacity="0.69"></rect><rect width="67" height="6" x="725.5" y="506" rx="3" transform="rotate(45, 759, 509)" opacity="0.77"></rect><rect width="813" height="6" x="238.5" y="153" rx="3" transform="rotate(45, 645, 156)" opacity="0.10"></rect><rect width="306" height="6" x="372" y="770" rx="3" transform="rotate(45, 525, 773)" opacity="0.55"></rect><rect width="362" height="6" x="417" y="389" rx="3" transform="rotate(45, 598, 392)" opacity="0.34"></rect><rect width="301" height="6" x="610.5" y="693" rx="3" transform="rotate(45, 761, 696)" opacity="0.21"></rect><rect width="266" height="6" x="287" y="490" rx="3" transform="rotate(45, 420, 493)" opacity="0.93"></rect><rect width="592" height="6" x="363" y="466" rx="3" transform="rotate(45, 659, 469)" opacity="0.86"></rect><rect width="639" height="6" x="422.5" y="385" rx="3" transform="rotate(45, 742, 388)" opacity="0.80"></rect><rect width="110" height="6" x="257" y="154" rx="3" transform="rotate(45, 312, 157)" opacity="0.79"></rect><rect width="593" height="6" x="-253.5" y="435" rx="3" transform="rotate(45, 43, 438)" opacity="0.61"></rect><rect width="96" height="6" x="363" y="600" rx="3" transform="rotate(45, 411, 603)" opacity="0.17"></rect><rect width="426" height="6" x="-99" y="32" rx="3" transform="rotate(45, 114, 35)" opacity="0.44"></rect><rect width="413" height="6" x="-88.5" y="699" rx="3" transform="rotate(45, 118, 702)" opacity="0.97"></rect><rect width="126" height="6" x="194" y="138" rx="3" transform="rotate(45, 257, 141)" opacity="0.75"></rect><rect width="349" height="6" x="163.5" y="762" rx="3" transform="rotate(45, 338, 765)" opacity="0.66"></rect><rect width="102" height="6" x="251" y="83" rx="3" transform="rotate(45, 302, 86)" opacity="0.89"></rect><rect width="469" height="6" x="524.5" y="611" rx="3" transform="rotate(45, 759, 614)" opacity="0.68"></rect><rect width="135" height="6" x="224.5" y="538" rx="3" transform="rotate(45, 292, 541)" opacity="0.08"></rect><rect width="494" height="6" x="15" y="244" rx="3" transform="rotate(45, 262, 247)" opacity="0.70"></rect><rect width="238" height="6" x="565" y="267" rx="3" transform="rotate(45, 684, 270)" opacity="0.09"></rect><rect width="435" height="6" x="136.5" y="244" rx="3" transform="rotate(45, 354, 247)" opacity="0.07"></rect><rect width="121" height="6" x="175.5" y="669" rx="3" transform="rotate(45, 236, 672)" opacity="0.34"></rect><rect width="66" height="6" x="93" y="515" rx="3" transform="rotate(45, 126, 518)" opacity="0.98"></rect><rect width="519" height="6" x="367.5" y="615" rx="3" transform="rotate(45, 627, 618)" opacity="0.12"></rect><rect width="418" height="6" x="163" y="363" rx="3" transform="rotate(45, 372, 366)" opacity="0.66"></rect><rect width="355" height="6" x="-68.5" y="356" rx="3" transform="rotate(45, 109, 359)" opacity="0.43"></rect><rect width="491" height="6" x="167.5" y="54" rx="3" transform="rotate(45, 413, 57)" opacity="0.57"></rect><rect width="378" height="6" x="78" y="452" rx="3" transform="rotate(45, 267, 455)" opacity="0.68"></rect><rect width="258" height="6" x="431" y="224" rx="3" transform="rotate(45, 560, 227)" opacity="0.62"></rect><rect width="263" height="6" x="69.5" y="20" rx="3" transform="rotate(45, 201, 23)" opacity="0.53"></rect><rect width="170" height="6" x="495" y="757" rx="3" transform="rotate(45, 580, 760)" opacity="0.75"></rect><rect width="346" height="6" x="195" y="445" rx="3" transform="rotate(45, 368, 448)" opacity="0.12"></rect><rect width="65" height="6" x="659.5" y="558" rx="3" transform="rotate(45, 692, 561)" opacity="0.56"></rect><rect width="643" height="6" x="-287.5" y="292" rx="3" transform="rotate(45, 34, 295)" opacity="0.95"></rect><rect width="103" height="6" x="-14.5" y="665" rx="3" transform="rotate(45, 37, 668)" opacity="0.18"></rect><rect width="357" height="6" x="479.5" y="33" rx="3" transform="rotate(45, 658, 36)" opacity="0.82"></rect></g></svg>